<?xml version="1.0" standalone="no"?>
<!DOCTYPE svg PUBLIC "-//W3C//DTD SVG 20010904//EN"
 "http://www.w3.org/TR/2001/REC-SVG-20010904/DTD/svg10.dtd">
<svg version="1.0" xmlns="http://www.w3.org/2000/svg"
 width="340.000000pt" height="340.000000pt" viewBox="0 0 340.000000 340.000000"
 preserveAspectRatio="xMidYMid meet">

<g transform="translate(0.000000,340.000000) scale(0.100000,-0.100000)"
fill="#000000" stroke="none">
<path d="M956 2506 c-85 -36 -139 -86 -183 -171 -22 -41 -27 -67 -31 -143 -4
-91 -4 -95 32 -167 33 -66 102 -145 128 -145 4 0 8 -4 8 -10 0 -5 -6 -10 -14
-10 -7 0 -51 -19 -97 -42 -117 -58 -220 -162 -278 -278 -40 -83 -70 -192 -71
-257 l0 -33 344 0 344 0 32 49 c42 66 163 180 233 220 l57 33 -30 38 c-42 53
-80 139 -87 199 -5 46 -9 52 -39 63 -19 7 -34 14 -34 18 0 3 18 17 38 32 26
18 42 40 50 65 6 21 27 64 47 97 30 50 35 67 35 122 0 127 -80 253 -197 311
-82 40 -204 44 -287 9z"/>
<path d="M2298 2517 c-103 -39 -177 -107 -219 -203 -29 -63 -33 -192 -8 -220
22 -25 69 -119 69 -138 0 -15 64 -76 80 -76 23 0 7 -18 -22 -26 -31 -9 -34
-14 -46 -73 -13 -70 -49 -147 -87 -193 -14 -16 -25 -33 -25 -36 0 -4 25 -20
55 -36 72 -37 181 -139 225 -209 l35 -56 345 2 344 2 -2 50 c-10 161 -96 326
-230 437 -59 50 -185 118 -217 118 -13 0 0 17 43 55 88 80 116 143 117 260 0
77 -4 98 -27 147 -35 75 -98 142 -166 175 -44 22 -72 28 -141 30 -55 2 -99 -2
-123 -10z"/>
<path d="M1667 2190 c-181 -46 -298 -223 -266 -405 13 -78 54 -150 117 -206
l48 -43 -97 -48 c-201 -99 -333 -285 -355 -503 l-7 -65 643 0 642 0 -7 53
c-32 251 -184 453 -404 538 l-59 23 39 28 c134 97 179 297 99 446 -60 112
-163 180 -287 187 -37 2 -85 0 -106 -5z"/>
</g>
</svg>
